<?xml version="1.0" encoding="iso-8859-1"?>
<!-- Generator: Adobe Illustrator 19.0.0, SVG Export Plug-In . SVG Version: 6.00 Build 0)  -->
<svg version="1.1" id="Layer_1" xmlns="http://www.w3.org/2000/svg" xmlns:xlink="http://www.w3.org/1999/xlink" x="0px" y="0px"
	 viewBox="0 0 512 512" style="enable-background:new 0 0 512 512;" xml:space="preserve">
<polygon style="fill:#ECE7EA;" points="8.26,8.258 8.26,426.667 63.314,448.688 85.335,503.742 345.049,503.742 345.049,8.258 "/>
<polygon style="fill:#C2B8B9;" points="469.356,173.735 463.907,137.142 427.314,131.692 403.957,155.05 409.406,191.643 
	445.999,197.092 "/>
<path style="fill:#463836;" d="M187.968,405.296c-2.149,2.149-2.149,5.636,0,7.786c2.15,2.15,5.636,2.149,7.786,0l34.303-20.197
	l4.626-26.517l-26.517,4.626L187.968,405.296z"/>
<polygon style="fill:#F99D88;" points="237.018,321.989 208.165,370.993 230.056,392.885 279.061,364.031 273.612,327.438 "/>
<path style="fill:#F14742;" d="M495.05,148.042c11.591-11.591,11.592-30.451,0-42.043s-30.452-11.591-42.043,0l-25.694,25.694
	l42.043,42.043L495.05,148.042z"/>
<rect x="223.466" y="229.824" transform="matrix(-0.7071 0.7071 -0.7071 -0.7071 766.5176 201.6044)" style="fill:#FFD24D;" width="236.079" height="59.457"/>
<polygon style="fill:#D6CED1;" points="8.26,426.667 85.335,503.742 85.335,426.667 "/>
<path d="M345.049,336.5c-4.561,0-8.258,3.697-8.258,8.258v150.726H93.593v-68.817c0-4.561-3.697-8.258-8.258-8.258H16.518V16.516
	h320.273v150.726c0,4.561,3.697,8.258,8.258,8.258c4.561,0,8.258-3.697,8.258-8.258V8.258c0-4.561-3.697-8.258-8.258-8.258H8.26
	C3.699,0,0.002,3.697,0.002,8.258v418.409c0,0.276,0.014,0.552,0.042,0.825c0.02,0.2,0.054,0.395,0.088,0.591
	c0.012,0.069,0.019,0.141,0.032,0.21c0.046,0.231,0.106,0.458,0.171,0.682c0.01,0.033,0.015,0.067,0.025,0.1
	c0.069,0.228,0.152,0.45,0.24,0.669c0.012,0.03,0.021,0.061,0.033,0.09c0.086,0.207,0.185,0.41,0.287,0.608
	c0.021,0.041,0.037,0.083,0.059,0.123c0.098,0.184,0.208,0.36,0.32,0.534c0.033,0.053,0.063,0.108,0.097,0.16
	c0.111,0.166,0.235,0.325,0.357,0.482c0.043,0.055,0.08,0.113,0.124,0.166c0.172,0.208,0.352,0.41,0.543,0.6l77.072,77.072
	c0.19,0.19,0.391,0.372,0.6,0.544c0.054,0.044,0.112,0.081,0.166,0.124c0.157,0.123,0.316,0.246,0.482,0.357
	c0.052,0.035,0.107,0.064,0.16,0.097c0.175,0.111,0.351,0.221,0.535,0.32c0.04,0.022,0.083,0.039,0.123,0.059
	c0.199,0.102,0.401,0.202,0.608,0.287c0.03,0.012,0.061,0.021,0.089,0.032c0.219,0.088,0.442,0.171,0.669,0.24
	c0.033,0.01,0.067,0.017,0.1,0.025c0.224,0.066,0.45,0.126,0.682,0.172c0.069,0.014,0.141,0.02,0.21,0.032
	c0.196,0.034,0.391,0.068,0.591,0.088c0.273,0.028,0.548,0.042,0.825,0.042h259.714c4.561,0,8.258-3.697,8.258-8.258V344.758
	C353.307,340.197,349.61,336.5,345.049,336.5z M77.077,483.806l-48.881-48.881h48.881V483.806z"/>
<path d="M289.996,445.935c4.561,0,8.258-3.697,8.258-8.258s-3.697-8.258-8.258-8.258h-70.91c-4.561,0-8.258,3.697-8.258,8.258
	s3.697,8.258,8.258,8.258H289.996z"/>
<path d="M289.996,77.075H63.314c-4.561,0-8.258,3.697-8.258,8.258s3.697,8.258,8.258,8.258h226.682c4.561,0,8.258-3.697,8.258-8.258
	S294.556,77.075,289.996,77.075z"/>
<path d="M289.996,121.118H63.314c-4.561,0-8.258,3.697-8.258,8.258c0,4.561,3.697,8.258,8.258,8.258h226.682
	c4.561,0,8.258-3.697,8.258-8.258C298.254,124.816,294.556,121.118,289.996,121.118z"/>
<path d="M289.996,165.161H63.314c-4.561,0-8.258,3.697-8.258,8.258s3.697,8.258,8.258,8.258h226.682
	c4.561,0,8.258-3.697,8.258-8.258S294.556,165.161,289.996,165.161z"/>
<path d="M298.254,217.462c0-4.561-3.697-8.258-8.258-8.258H63.314c-4.561,0-8.258,3.697-8.258,8.258s3.697,8.258,8.258,8.258
	h226.682C294.556,225.72,298.254,222.023,298.254,217.462z"/>
<path d="M259.043,261.505c0-4.561-3.697-8.258-8.258-8.258H63.314c-4.561,0-8.258,3.697-8.258,8.258
	c0,4.561,3.697,8.258,8.258,8.258h187.472C255.347,269.763,259.043,266.066,259.043,261.505z"/>
<path d="M63.314,297.29c-4.561,0-8.258,3.697-8.258,8.258c0,4.561,3.697,8.258,8.258,8.258h113.341c4.561,0,8.258-3.697,8.258-8.258
	c0-4.561-3.697-8.258-8.258-8.258H63.314z"/>
<path d="M500.889,100.16c-7.166-7.166-16.704-11.113-26.861-11.113c-10.156,0-19.695,3.946-26.861,11.112l-25.693,25.694h-0.001
	h-0.001l-23.355,23.355h-0.001c-0.001,0.001-0.001,0.001-0.001,0.001L231.178,316.15c-0.232,0.231-0.443,0.477-0.641,0.728
	c-0.051,0.065-0.097,0.133-0.146,0.199c-0.149,0.2-0.288,0.405-0.416,0.614c-0.023,0.037-0.051,0.07-0.073,0.108l-48.634,82.6
	c-2.054,2.465-3.17,5.542-3.17,8.79c0,3.676,1.431,7.133,4.031,9.732c2.683,2.683,6.208,4.024,9.732,4.024
	c3.124,0,6.247-1.054,8.785-3.162l82.604-48.637c0.039-0.023,0.072-0.051,0.11-0.074c0.209-0.128,0.412-0.266,0.611-0.414
	c0.067-0.05,0.135-0.097,0.202-0.149c0.251-0.198,0.496-0.408,0.727-0.641l166.937-166.936c0,0,0.001,0,0.001-0.001
	c0-0.001,0.001-0.001,0.001-0.001l23.356-23.356h0.001h0.001l25.693-25.692C515.701,139.071,515.701,114.971,500.889,100.16z
	 M445.999,185.414l-30.364-30.365l11.679-11.678l30.365,30.364L445.999,185.414z M279.061,352.353l-30.364-30.364l155.26-155.26
	l30.364,30.364L279.061,352.353z M231.375,382.526l-12.851-12.851l20.197-34.303l26.957,26.957L231.375,382.526z M200.125,400.926
	l9.745-16.55l6.806,6.806L200.125,400.926z M489.211,142.203l-19.853,19.854l-30.365-30.364l19.855-19.855
	c4.046-4.046,9.438-6.275,15.183-6.275s11.135,2.229,15.183,6.275c4.046,4.046,6.275,9.438,6.275,15.183
	C495.487,132.764,493.257,138.157,489.211,142.203z"/>
<g>
</g>
<g>
</g>
<g>
</g>
<g>
</g>
<g>
</g>
<g>
</g>
<g>
</g>
<g>
</g>
<g>
</g>
<g>
</g>
<g>
</g>
<g>
</g>
<g>
</g>
<g>
</g>
<g>
</g>
</svg>
