<?xml version="1.0" encoding="iso-8859-1"?>
<!-- Generator: Adobe Illustrator 19.0.0, SVG Export Plug-In . SVG Version: 6.00 Build 0)  -->
<svg version="1.1" id="Layer_1" xmlns="http://www.w3.org/2000/svg" xmlns:xlink="http://www.w3.org/1999/xlink" x="0px" y="0px"
	 viewBox="0 0 512 512" style="enable-background:new 0 0 512 512;" xml:space="preserve">
<path style="fill:#EEE5DD;" d="M280.318,237.767c0,13.43-10.888,24.318-24.318,24.318c-13.43,0-24.318-10.888-24.318-24.318v-55.733
	c0,13.43-10.888,24.318-24.318,24.318c-3.171,0-6.191-0.625-8.969-1.729v262.302h115.21V229.392
	c-2.778,1.104-5.797,1.729-8.969,1.729c-13.43,0-24.318-10.888-24.318-24.318L280.318,237.767z"/>
<path style="fill:#FFE046;" d="M297.337,104.382c-1.561,53.075-81.112,53.075-82.673,0C212.989,47.426,232.139,0,256,0
	S299.011,47.426,297.337,104.382z"/>
<g>
	<path style="fill:#20272E;" d="M265.289,187.882v-12.941V94.374c0-5.131-4.158-9.289-9.289-9.289c-5.131,0-9.289,4.158-9.289,9.289
		v80.566v12.941H265.289z"/>
	<path style="opacity:0.3;fill:#20272E;enable-background:new    ;" d="M280.318,237.767c0,13.43-10.888,24.318-24.318,24.318
		c-13.43,0-24.318-10.888-24.318-24.318v-55.733c0,13.43-10.888,24.318-24.318,24.318c-3.171,0-6.191-0.625-8.969-1.729v262.302
		h115.21V229.392c-2.778,1.104-5.797,1.729-8.969,1.729c-13.43,0-24.318-10.888-24.318-24.318L280.318,237.767z"/>
	<path style="opacity:0.3;fill:#20272E;enable-background:new    ;" d="M280.318,206.804v30.963
		c0,13.43-10.888,24.318-24.318,24.318c-13.43,0-24.318-10.888-24.318-24.318v-55.733c0,13.43-10.888,24.318-24.318,24.318
		c-3.171,0-6.191-0.625-8.969-1.729v68.896c2.894,0.618,5.893,0.951,8.969,0.951c1.946,0,3.863-0.13,5.74-0.383v13.22
		c0,23.653,19.243,42.896,42.896,42.896c19.737,0,36.402-13.398,41.38-31.577c2.359,0.404,4.783,0.614,7.255,0.614
		c3.076,0,6.075-0.332,8.969-0.951v-68.896c-2.778,1.104-5.797,1.729-8.969,1.729C291.206,231.121,280.318,220.233,280.318,206.804z
		"/>
</g>
<path style="fill:#EEE5DD;" d="M280.318,256.344c0,13.43,10.888,24.318,24.318,24.318s24.318-10.888,24.318-24.318v-81.395H183.047
	v56.625c0,13.43,10.888,24.318,24.318,24.318c13.43,0,24.318-10.888,24.318-24.318v55.733c0,13.43,10.888,24.318,24.318,24.318
	s24.318-10.888,24.318-24.318L280.318,256.344z"/>
<path style="fill:#664B33;" d="M89.313,439.687L89.313,439.687c0,39.937,32.376,72.313,72.313,72.313h188.749
	c39.937,0,72.313-32.376,72.313-72.313l0,0H89.313z"/>
<path style="opacity:0.3;fill:#20272E;enable-background:new    ;" d="M313.606,439.687V278.932
	c8.987-3.572,15.349-12.329,15.349-22.589v-81.395h-63.666l0,0v-31.706c16.768-3.455,31.388-16.407,32.048-38.862
	C299.012,47.426,279.861,0,256,0v512h94.374c39.937,0,72.313-32.376,72.313-72.313l0,0H313.606z"/>
<g>
</g>
<g>
</g>
<g>
</g>
<g>
</g>
<g>
</g>
<g>
</g>
<g>
</g>
<g>
</g>
<g>
</g>
<g>
</g>
<g>
</g>
<g>
</g>
<g>
</g>
<g>
</g>
<g>
</g>
</svg>
