<?xml version="1.0" encoding="iso-8859-1"?>
<!-- Generator: Adobe Illustrator 19.0.0, SVG Export Plug-In . SVG Version: 6.00 Build 0)  -->
<svg version="1.1" id="Layer_1" xmlns="http://www.w3.org/2000/svg" xmlns:xlink="http://www.w3.org/1999/xlink" x="0px" y="0px"
	 viewBox="0 0 512 512" style="enable-background:new 0 0 512 512;" xml:space="preserve">
<g transform="translate(1 1)">
	<g>
		<path style="fill:#FFDD09;" d="M323.267,314.733H186.733V75.8c0-37.547,30.72-68.267,68.267-68.267s68.267,30.72,68.267,68.267
			V314.733z"/>
		<path style="fill:#FFDD09;" d="M213.187,400.067l-0.853,53.76c0,9.387,2.56,18.773,7.68,26.453l1.707,2.56
			c5.12,7.68,11.947,14.507,21.333,17.067c17.92,5.973,35.84-1.707,45.227-16.213l2.56-4.267c5.12-7.68,7.68-17.067,7.68-26.453
			l0.853-53.76h-86.187V400.067z"/>
		<path style="fill:#FFDD09;" d="M297.667,400.067h-84.48c-18.773,0-34.987-15.36-34.987-34.987v-50.347h153.6v50.347
			C332.653,384.707,317.293,400.067,297.667,400.067"/>
	</g>
	<path style="fill:#FD9808;" d="M307.053,314.733v50.347c0,18.773-15.36,34.987-34.987,34.987h25.6
		c18.773,0,34.987-15.36,34.987-34.987v-50.347H307.053z"/>
	<path style="fill:#FFFFFF;" d="M203.8,314.733v50.347c0,19.627,15.36,34.987,34.987,34.987h-25.6
		c-19.627,0-34.987-15.36-34.987-34.987v-50.347H203.8z"/>
	<path style="fill:#FD9808;" d="M255.853,7.533c-2.56,0-5.973,0-8.533,0.853c33.28,4.267,59.733,33.28,59.733,67.413v238.933h17.067
		V75.8C324.12,38.253,293.4,7.533,255.853,7.533"/>
	<path style="fill:#FFFFFF;" d="M255.853,7.533c2.56,0,5.973,0,8.533,0.853c-33.28,4.267-59.733,33.28-59.733,67.413v238.933
		h-17.067V75.8C187.587,38.253,218.307,7.533,255.853,7.533"/>
	<path style="fill:#FCC309;" d="M221.72,314.733V75.8c0-18.773,15.36-34.133,34.133-34.133s34.133,15.36,34.133,34.133v238.933
		H221.72z"/>
	<path d="M255,511c-5.12,0-10.24-0.853-15.36-2.56c-10.24-3.413-19.627-11.093-25.6-20.48l-1.707-2.56
		c-5.973-9.387-8.533-19.627-8.533-30.72v-54.613c0-5.12,3.413-8.533,8.533-8.533h85.333c5.12,0,8.533,3.413,8.533,8.533v53.76
		c0,11.093-3.413,21.333-8.533,30.72l-2.56,4.267C286.573,503.32,271.213,511,255,511z M220.867,408.6v45.227
		c0,7.68,2.56,15.36,5.973,21.333l2.56,3.413c4.267,6.827,10.24,11.093,16.213,13.653c13.653,4.267,28.16-0.853,34.987-12.8
		l2.56-4.267c4.267-6.827,5.973-13.653,5.973-21.333V408.6H220.867z"/>
	<path d="M297.667,442.733h-34.133c-5.12,0-8.533-3.413-8.533-8.533c0-5.12,3.413-8.533,8.533-8.533h34.133
		c5.12,0,8.533,3.413,8.533,8.533C306.2,439.32,302.787,442.733,297.667,442.733z"/>
	<path d="M229.4,442.733h-17.067c-5.12,0-8.533-3.413-8.533-8.533c0-5.12,3.413-8.533,8.533-8.533H229.4
		c5.12,0,8.533,3.413,8.533,8.533C237.933,439.32,234.52,442.733,229.4,442.733z"/>
	<path d="M246.467,476.867h-31.573c-5.12,0-8.533-3.413-8.533-8.533c0-5.12,3.413-8.533,8.533-8.533h31.573
		c5.12,0,8.533,3.413,8.533,8.533C255,473.453,251.587,476.867,246.467,476.867z"/>
	<path d="M295.96,476.867H280.6c-5.12,0-8.533-3.413-8.533-8.533c0-5.12,3.413-8.533,8.533-8.533h15.36
		c5.12,0,8.533,3.413,8.533,8.533C304.493,473.453,300.227,476.867,295.96,476.867z"/>
	<path d="M297.667,408.6h-84.48c-23.893,0-43.52-19.627-43.52-43.52v-50.347c0-5.12,3.413-8.533,8.533-8.533h153.6
		c5.12,0,8.533,3.413,8.533,8.533v50.347C340.333,388.973,320.707,408.6,297.667,408.6z M186.733,323.267v41.813
		c0,14.507,11.947,26.453,26.453,26.453h84.48c14.507,0,26.453-11.947,26.453-26.453v-41.813H186.733z"/>
	<path d="M323.267,323.267H186.733c-5.12,0-8.533-3.413-8.533-8.533V75.8C178.2,33.133,212.333-1,255-1s76.8,34.133,76.8,76.8
		v238.933C331.8,319.853,328.387,323.267,323.267,323.267z M195.267,306.2h119.467V75.8c0-33.28-26.453-59.733-59.733-59.733
		c-32.427,0-59.733,26.453-59.733,59.733V306.2z"/>
	<path d="M289.133,323.267h-68.267c-5.12,0-8.533-3.413-8.533-8.533V75.8c0-23.893,18.773-42.667,42.667-42.667
		s42.667,18.773,42.667,42.667v238.933C297.667,319.853,294.253,323.267,289.133,323.267z M229.4,306.2h51.2V75.8
		c0-14.507-11.093-25.6-25.6-25.6s-25.6,11.093-25.6,25.6V306.2z"/>
	<path d="M255,323.267c-5.12,0-8.533-3.413-8.533-8.533V92.867c0-5.12,3.413-8.533,8.533-8.533s8.533,3.413,8.533,8.533v221.867
		C263.533,319,260.12,323.267,255,323.267z"/>
</g>
<g>
</g>
<g>
</g>
<g>
</g>
<g>
</g>
<g>
</g>
<g>
</g>
<g>
</g>
<g>
</g>
<g>
</g>
<g>
</g>
<g>
</g>
<g>
</g>
<g>
</g>
<g>
</g>
<g>
</g>
</svg>
