<?xml version="1.0" encoding="iso-8859-1"?>
<!-- Generator: Adobe Illustrator 19.0.0, SVG Export Plug-In . SVG Version: 6.00 Build 0)  -->
<svg version="1.1" id="Layer_1" xmlns="http://www.w3.org/2000/svg" xmlns:xlink="http://www.w3.org/1999/xlink" x="0px" y="0px"
	 viewBox="0 0 511.46 511.46" style="enable-background:new 0 0 511.46 511.46;" xml:space="preserve">
<path style="fill:#C7CBC7;" d="M211.592,406.069v55.614c0,9.71,2.648,19.421,7.945,27.366l1.766,2.648
	c5.297,7.945,12.359,15.007,22.069,17.655c18.538,6.179,37.076-1.766,46.786-16.772l2.648-4.414
	c5.297-7.945,7.945-17.655,7.945-27.366v-54.731H211.592z"/>
<path style="fill:#DCE0E8;" d="M326.351,317.793H185.109V70.621C185.109,31.779,216.889,0,255.73,0s70.621,31.779,70.621,70.621
	V317.793z"/>
<path style="fill:#CAD0D8;" d="M220.42,317.793V70.621c0-19.421,15.89-35.31,35.31-35.31s35.31,15.89,35.31,35.31v247.172H220.42z"
	/>
<path style="fill:#FFFFFF;" d="M255.73,326.621c-5.297,0-8.828-3.531-8.828-8.828V88.276c0-5.297,3.531-8.828,8.828-8.828
	c5.297,0,8.828,3.531,8.828,8.828v229.517C264.558,322.207,261.027,326.621,255.73,326.621"/>
<g>
	<path style="fill:#E8EDEE;" d="M298.985,406.069h-86.51c-20.303,0-36.193-15.89-36.193-36.193v-52.083h158.897v52.083
		C335.178,390.179,319.289,406.069,298.985,406.069"/>
	<path style="fill:#E8EDEE;" d="M264.558,432.552c-5.297,0-8.828,3.531-8.828,8.828s3.531,8.828,8.828,8.828h35.31v-17.655H264.558z
		"/>
	<path style="fill:#E8EDEE;" d="M299.868,467.862c-0.883,0-0.883,0-1.766,0h-15.89c-5.297,0-8.828,3.531-8.828,8.828
		s3.531,8.828,8.828,8.828h11.476C297.22,480.221,298.985,474.041,299.868,467.862"/>
	<path style="fill:#E8EDEE;" d="M246.902,467.862h-33.545c-0.883,0-0.883,0-1.766,0c0.883,6.179,2.648,11.476,5.297,17.655h30.014
		c5.297,0,8.828-3.531,8.828-8.828S252.199,467.862,246.902,467.862"/>
	<path style="fill:#E8EDEE;" d="M229.247,450.207c5.297,0,8.828-3.531,8.828-8.828s-3.531-8.828-8.828-8.828h-17.655v17.655H229.247
		z"/>
</g>
<g>
</g>
<g>
</g>
<g>
</g>
<g>
</g>
<g>
</g>
<g>
</g>
<g>
</g>
<g>
</g>
<g>
</g>
<g>
</g>
<g>
</g>
<g>
</g>
<g>
</g>
<g>
</g>
<g>
</g>
</svg>
