<?xml version="1.0" encoding="iso-8859-1"?>
<!-- Generator: Adobe Illustrator 19.0.0, SVG Export Plug-In . SVG Version: 6.00 Build 0)  -->
<svg version="1.1" id="Layer_1" xmlns="http://www.w3.org/2000/svg" xmlns:xlink="http://www.w3.org/1999/xlink" x="0px" y="0px"
	 viewBox="0 0 496.254 496.254" style="enable-background:new 0 0 496.254 496.254;" xml:space="preserve">
<circle style="fill:#F2D168;" cx="248.127" cy="392.539" r="103.715"/>
<path style="fill:#E2BE59;" d="M351.842,392.539c0,57.273-46.442,103.708-103.723,103.708"/>
<path style="fill:#F2D168;" d="M307.196,337.4c0,32.618-26.451,59.077-59.077,59.077l0,0c-32.626,0-59.077-26.459-59.077-59.077
	V59.077C189.042,26.443,215.493,0,248.119,0l0,0c32.626,0,59.077,26.443,59.077,59.077V337.4z"/>
<path style="fill:#EFDA75;" d="M189.042,201.507V59.077C189.042,26.443,215.493,0,248.119,0l0,0"/>
<circle style="fill:#FF3C00;" cx="248.119" cy="392.539" r="29.538"/>
<path style="fill:#B22D09;" d="M277.658,392.539c0,16.305-13.225,29.538-29.538,29.538s-29.538-13.233-29.538-29.538"/>
<path style="fill:#FF3C00;" d="M256.981,387.6c0,4.892-3.97,8.862-8.862,8.862l0,0c-4.892,0-8.862-3.97-8.862-8.862V58.738
	c0-4.892,3.97-8.862,8.862-8.862l0,0c4.892,0,8.862,3.97,8.862,8.862V387.6z"/>
<g>
	<path style="fill:#B79639;" d="M295.381,108.292c0,1.095-0.89,1.969-1.969,1.969h-18.385c-1.095,0-1.969-0.874-1.969-1.969l0,0
		c0-1.095,0.874-1.969,1.969-1.969h18.385C294.491,106.323,295.381,107.197,295.381,108.292L295.381,108.292z"/>
	<path style="fill:#B79639;" d="M295.381,123.557c0,1.095-0.89,1.969-1.969,1.969h-2.631c-1.095,0-1.969-0.874-1.969-1.969l0,0
		c0-1.095,0.874-1.969,1.969-1.969h2.631C294.491,121.588,295.381,122.463,295.381,123.557L295.381,123.557z"/>
	<path style="fill:#B79639;" d="M295.381,139.8c0,1.095-0.89,1.969-1.969,1.969h-18.385c-1.095,0-1.969-0.874-1.969-1.969l0,0
		c0-1.095,0.874-1.969,1.969-1.969h18.385C294.491,137.83,295.381,138.705,295.381,139.8L295.381,139.8z"/>
	<path style="fill:#B79639;" d="M295.381,155.065c0,1.095-0.89,1.969-1.969,1.969h-2.631c-1.095,0-1.969-0.874-1.969-1.969l0,0
		c0-1.095,0.874-1.969,1.969-1.969h2.631C294.491,153.096,295.381,153.97,295.381,155.065L295.381,155.065z"/>
	<path style="fill:#B79639;" d="M295.381,171.307c0,1.095-0.89,1.969-1.969,1.969h-18.385c-1.095,0-1.969-0.874-1.969-1.969l0,0
		c0-1.095,0.874-1.969,1.969-1.969h18.385C294.491,169.338,295.381,170.212,295.381,171.307L295.381,171.307z"/>
	<path style="fill:#B79639;" d="M295.381,186.573c0,1.095-0.89,1.969-1.969,1.969h-2.631c-1.095,0-1.969-0.874-1.969-1.969l0,0
		c0-1.095,0.874-1.969,1.969-1.969h2.631C294.491,184.604,295.381,185.478,295.381,186.573L295.381,186.573z"/>
	<path style="fill:#B79639;" d="M295.381,202.815c0,1.095-0.89,1.969-1.969,1.969h-18.385c-1.095,0-1.969-0.874-1.969-1.969l0,0
		c0-1.095,0.874-1.969,1.969-1.969h18.385C294.491,200.846,295.381,201.72,295.381,202.815L295.381,202.815z"/>
	<path style="fill:#B79639;" d="M295.381,218.081c0,1.095-0.89,1.969-1.969,1.969h-2.631c-1.095,0-1.969-0.874-1.969-1.969l0,0
		c0-1.095,0.874-1.969,1.969-1.969h2.631C294.491,216.111,295.381,216.986,295.381,218.081L295.381,218.081z"/>
	<path style="fill:#B79639;" d="M295.381,234.323c0,1.095-0.89,1.969-1.969,1.969h-18.385c-1.095,0-1.969-0.874-1.969-1.969l0,0
		c0-1.095,0.874-1.969,1.969-1.969h18.385C294.491,232.353,295.381,233.228,295.381,234.323L295.381,234.323z"/>
	<path style="fill:#B79639;" d="M295.381,249.588c0,1.095-0.89,1.969-1.969,1.969h-2.631c-1.095,0-1.969-0.874-1.969-1.969l0,0
		c0-1.095,0.874-1.969,1.969-1.969h2.631C294.491,247.619,295.381,248.493,295.381,249.588L295.381,249.588z"/>
	<path style="fill:#B79639;" d="M295.381,265.83c0,1.095-0.89,1.969-1.969,1.969h-18.385c-1.095,0-1.969-0.874-1.969-1.969l0,0
		c0-1.095,0.874-1.969,1.969-1.969h18.385C294.491,263.861,295.381,264.736,295.381,265.83L295.381,265.83z"/>
	<path style="fill:#B79639;" d="M295.381,281.096c0,1.095-0.89,1.969-1.969,1.969h-2.631c-1.095,0-1.969-0.874-1.969-1.969l0,0
		c0-1.095,0.874-1.969,1.969-1.969h2.631C294.491,279.127,295.381,280.001,295.381,281.096L295.381,281.096z"/>
</g>
<g>
</g>
<g>
</g>
<g>
</g>
<g>
</g>
<g>
</g>
<g>
</g>
<g>
</g>
<g>
</g>
<g>
</g>
<g>
</g>
<g>
</g>
<g>
</g>
<g>
</g>
<g>
</g>
<g>
</g>
</svg>
